<svg width="160" height="24" viewBox="0 0 160 24" fill="none" xmlns="http://www.w3.org/2000/svg">
<g clip-path="url(#clip0_2412_1654)">
<rect width="24" height="24" fill="white"/>
<path d="M12.7392 17.8812L17.4675 20.8769C18.0719 21.2598 18.8223 20.6903 18.643 19.9847L17.2769 14.6108C17.2384 14.4611 17.243 14.3036 17.29 14.1564C17.3371 14.0092 17.4247 13.8783 17.5429 13.7787L21.783 10.2496C22.3401 9.78588 22.0525 8.86126 21.3367 8.81481L15.7995 8.45544C15.6504 8.44479 15.5073 8.39198 15.387 8.30317C15.2667 8.21437 15.1741 8.09321 15.12 7.95382L13.0549 2.75323C12.9987 2.60528 12.8989 2.4779 12.7687 2.38802C12.6384 2.29814 12.4839 2.25 12.3257 2.25C12.1674 2.25 12.0129 2.29814 11.8827 2.38802C11.7525 2.4779 11.6527 2.60528 11.5965 2.75323L9.53136 7.95382C9.47725 8.09321 9.38466 8.21437 9.26436 8.30317C9.14406 8.39198 9.00101 8.44479 8.85187 8.45544L3.31462 8.81481C2.59884 8.86126 2.31128 9.78588 2.86841 10.2496L7.10847 13.7787C7.22663 13.8783 7.31428 14.0092 7.36134 14.1564C7.4084 14.3036 7.41296 14.4611 7.37449 14.6108L6.10757 19.5945C5.89235 20.4412 6.79284 21.1246 7.51811 20.6651L11.9122 17.8812C12.0357 17.8025 12.1792 17.7607 12.3257 17.7607C12.4722 17.7607 12.6156 17.8025 12.7392 17.8812Z" fill="#FFBA53"/>
</g>
<g clip-path="url(#clip1_2412_1654)">
<rect width="24" height="24" transform="translate(34)" fill="white"/>
<path d="M46.7392 17.8812L51.4675 20.8769C52.0719 21.2598 52.8223 20.6903 52.643 19.9847L51.2769 14.6108C51.2384 14.4611 51.243 14.3036 51.29 14.1564C51.3371 14.0092 51.4247 13.8783 51.5429 13.7787L55.783 10.2496C56.3401 9.78588 56.0525 8.86126 55.3367 8.81481L49.7995 8.45544C49.6504 8.44479 49.5073 8.39198 49.387 8.30317C49.2667 8.21437 49.1741 8.09321 49.12 7.95382L47.0549 2.75323C46.9987 2.60528 46.8989 2.4779 46.7687 2.38802C46.6384 2.29814 46.4839 2.25 46.3257 2.25C46.1674 2.25 46.0129 2.29814 45.8827 2.38802C45.7525 2.4779 45.6527 2.60528 45.5965 2.75323L43.5314 7.95382C43.4772 8.09321 43.3847 8.21437 43.2644 8.30317C43.1441 8.39198 43.001 8.44479 42.8519 8.45544L37.3146 8.81481C36.5988 8.86126 36.3113 9.78588 36.8684 10.2496L41.1085 13.7787C41.2266 13.8783 41.3143 14.0092 41.3613 14.1564C41.4084 14.3036 41.413 14.4611 41.3745 14.6108L40.1076 19.5945C39.8923 20.4412 40.7928 21.1246 41.5181 20.6651L45.9122 17.8812C46.0357 17.8025 46.1792 17.7607 46.3257 17.7607C46.4722 17.7607 46.6156 17.8025 46.7392 17.8812Z" fill="#FFBA53"/>
</g>
<g clip-path="url(#clip2_2412_1654)">
<rect width="24" height="24" transform="translate(68)" fill="white"/>
<path d="M80.7392 17.8812L85.4675 20.8769C86.0719 21.2598 86.8223 20.6903 86.643 19.9847L85.2769 14.6108C85.2384 14.4611 85.243 14.3036 85.29 14.1564C85.3371 14.0092 85.4247 13.8783 85.5429 13.7787L89.783 10.2496C90.3401 9.78588 90.0525 8.86126 89.3367 8.81481L83.7995 8.45544C83.6504 8.44479 83.5073 8.39198 83.387 8.30317C83.2667 8.21437 83.1741 8.09321 83.12 7.95382L81.0549 2.75323C80.9987 2.60528 80.8989 2.4779 80.7687 2.38802C80.6384 2.29814 80.4839 2.25 80.3257 2.25C80.1674 2.25 80.0129 2.29814 79.8827 2.38802C79.7525 2.4779 79.6527 2.60528 79.5965 2.75323L77.5314 7.95382C77.4772 8.09321 77.3847 8.21437 77.2644 8.30317C77.1441 8.39198 77.001 8.44479 76.8519 8.45544L71.3146 8.81481C70.5988 8.86126 70.3113 9.78588 70.8684 10.2496L75.1085 13.7787C75.2266 13.8783 75.3143 14.0092 75.3613 14.1564C75.4084 14.3036 75.413 14.4611 75.3745 14.6108L74.1076 19.5945C73.8923 20.4412 74.7928 21.1246 75.5181 20.6651L79.9122 17.8812C80.0357 17.8025 80.1792 17.7607 80.3257 17.7607C80.4722 17.7607 80.6156 17.8025 80.7392 17.8812Z" fill="#FFBA53"/>
</g>
<g clip-path="url(#clip3_2412_1654)">
<rect width="24" height="24" transform="translate(102)" fill="white"/>
<path d="M114.739 17.8812L119.468 20.8769C120.072 21.2598 120.822 20.6903 120.643 19.9847L119.277 14.6108C119.238 14.4611 119.243 14.3036 119.29 14.1564C119.337 14.0092 119.425 13.8783 119.543 13.7787L123.783 10.2496C124.34 9.78588 124.053 8.86126 123.337 8.81481L117.8 8.45544C117.65 8.44479 117.507 8.39198 117.387 8.30317C117.267 8.21437 117.174 8.09321 117.12 7.95382L115.055 2.75323C114.999 2.60528 114.899 2.4779 114.769 2.38802C114.638 2.29814 114.484 2.25 114.326 2.25C114.167 2.25 114.013 2.29814 113.883 2.38802C113.752 2.4779 113.653 2.60528 113.597 2.75323L111.531 7.95382C111.477 8.09321 111.385 8.21437 111.264 8.30317C111.144 8.39198 111.001 8.44479 110.852 8.45544L105.315 8.81481C104.599 8.86126 104.311 9.78588 104.868 10.2496L109.108 13.7787C109.227 13.8783 109.314 14.0092 109.361 14.1564C109.408 14.3036 109.413 14.4611 109.374 14.6108L108.108 19.5945C107.892 20.4412 108.793 21.1246 109.518 20.6651L113.912 17.8812C114.036 17.8025 114.179 17.7607 114.326 17.7607C114.472 17.7607 114.616 17.8025 114.739 17.8812Z" fill="#FFBA53"/>
</g>
<g clip-path="url(#clip4_2412_1654)">
<rect width="24" height="24" transform="translate(136)" fill="white"/>
<path d="M148.739 17.8812L153.468 20.8769C154.072 21.2598 154.822 20.6903 154.643 19.9847L153.277 14.6108C153.238 14.4611 153.243 14.3036 153.29 14.1564C153.337 14.0092 153.425 13.8783 153.543 13.7787L157.783 10.2496C158.34 9.78588 158.053 8.86126 157.337 8.81481L151.8 8.45544C151.65 8.44479 151.507 8.39198 151.387 8.30317C151.267 8.21437 151.174 8.09321 151.12 7.95382L149.055 2.75323C148.999 2.60528 148.899 2.4779 148.769 2.38802C148.638 2.29814 148.484 2.25 148.326 2.25C148.167 2.25 148.013 2.29814 147.883 2.38802C147.752 2.4779 147.653 2.60528 147.597 2.75323L145.531 7.95382C145.477 8.09321 145.385 8.21437 145.264 8.30317C145.144 8.39198 145.001 8.44479 144.852 8.45544L139.315 8.81481C138.599 8.86126 138.311 9.78588 138.868 10.2496L143.108 13.7787C143.227 13.8783 143.314 14.0092 143.361 14.1564C143.408 14.3036 143.413 14.4611 143.374 14.6108L142.108 19.5945C141.892 20.4412 142.793 21.1246 143.518 20.6651L147.912 17.8812C148.036 17.8025 148.179 17.7607 148.326 17.7607C148.472 17.7607 148.616 17.8025 148.739 17.8812Z" fill="#FFBA53"/>
</g>
<defs>
<clipPath id="clip0_2412_1654">
<rect width="24" height="24" fill="white"/>
</clipPath>
<clipPath id="clip1_2412_1654">
<rect width="24" height="24" fill="white" transform="translate(34)"/>
</clipPath>
<clipPath id="clip2_2412_1654">
<rect width="24" height="24" fill="white" transform="translate(68)"/>
</clipPath>
<clipPath id="clip3_2412_1654">
<rect width="24" height="24" fill="white" transform="translate(102)"/>
</clipPath>
<clipPath id="clip4_2412_1654">
<rect width="24" height="24" fill="white" transform="translate(136)"/>
</clipPath>
</defs>
</svg>
